<mxfile host="app.diagrams.net" agent="Mozilla/5.0 (X11; Linux x86_64) AppleWebKit/537.36 (KHTML, like Gecko) Chrome/131.0.0.0 Safari/537.36" version="26.0.4">
  <diagram name="Page-1" id="66OAsBhKdZM1-A0TPhJp">
    <mxGraphModel dx="1719" dy="2926" grid="1" gridSize="10" guides="1" tooltips="1" connect="1" arrows="1" fold="1" page="1" pageScale="1" pageWidth="850" pageHeight="1100" math="0" shadow="0">
      <root>
        <mxCell id="0" />
        <mxCell id="1" parent="0" />
        <mxCell id="xMIkVvJcNc6API9_gUjA-1" value="" style="group" vertex="1" connectable="0" parent="1">
          <mxGeometry x="270" y="-1450" width="1145" height="150" as="geometry" />
        </mxCell>
        <mxCell id="xMIkVvJcNc6API9_gUjA-2" value="" style="group" vertex="1" connectable="0" parent="xMIkVvJcNc6API9_gUjA-1">
          <mxGeometry width="1145" height="150" as="geometry" />
        </mxCell>
        <mxCell id="xMIkVvJcNc6API9_gUjA-3" value="condition" style="shape=umlFrame;whiteSpace=wrap;html=1;pointerEvents=0;strokeWidth=2;" vertex="1" parent="xMIkVvJcNc6API9_gUjA-2">
          <mxGeometry x="10" width="1135" height="150" as="geometry" />
        </mxCell>
        <mxCell id="xMIkVvJcNc6API9_gUjA-4" value="" style="endArrow=none;dashed=1;html=1;rounded=0;exitX=-0.002;exitY=0.335;exitDx=0;exitDy=0;exitPerimeter=0;entryX=1;entryY=0.341;entryDx=0;entryDy=0;entryPerimeter=0;strokeWidth=3;" edge="1" parent="xMIkVvJcNc6API9_gUjA-2" source="xMIkVvJcNc6API9_gUjA-3" target="xMIkVvJcNc6API9_gUjA-3">
          <mxGeometry width="50" height="50" relative="1" as="geometry">
            <mxPoint x="-70.61674008810579" y="110" as="sourcePoint" />
            <mxPoint x="1150.044052863436" y="40" as="targetPoint" />
          </mxGeometry>
        </mxCell>
        <mxCell id="xMIkVvJcNc6API9_gUjA-5" value="" style="html=1;verticalAlign=bottom;endArrow=open;dashed=1;endSize=8;labelBackgroundColor=none;fontFamily=Verdana;fontSize=12;" edge="1" parent="xMIkVvJcNc6API9_gUjA-2">
          <mxGeometry relative="1" as="geometry">
            <mxPoint x="350" y="110" as="targetPoint" />
            <mxPoint x="1062" y="110" as="sourcePoint" />
          </mxGeometry>
        </mxCell>
        <mxCell id="xMIkVvJcNc6API9_gUjA-6" value="return session&amp;nbsp;" style="edgeLabel;html=1;align=center;verticalAlign=middle;resizable=0;points=[];fontSize=12;" vertex="1" connectable="0" parent="xMIkVvJcNc6API9_gUjA-5">
          <mxGeometry x="0.0033" y="-3" relative="1" as="geometry">
            <mxPoint x="-6" y="-7" as="offset" />
          </mxGeometry>
        </mxCell>
        <mxCell id="xMIkVvJcNc6API9_gUjA-7" value="[user has&lt;div&gt;&amp;nbsp;a session]&lt;/div&gt;" style="text;html=1;align=center;verticalAlign=middle;resizable=0;points=[];autosize=1;strokeColor=none;fillColor=none;" vertex="1" parent="xMIkVvJcNc6API9_gUjA-2">
          <mxGeometry x="119.99683549671369" y="9.998571428571381" width="80" height="40" as="geometry" />
        </mxCell>
        <mxCell id="xMIkVvJcNc6API9_gUjA-8" value="[user dont have&lt;div&gt;&amp;nbsp;a session]&lt;/div&gt;" style="text;html=1;align=center;verticalAlign=middle;resizable=0;points=[];autosize=1;strokeColor=none;fillColor=none;" vertex="1" parent="xMIkVvJcNc6API9_gUjA-2">
          <mxGeometry x="89.99683549671369" y="79.99857142857138" width="110" height="40" as="geometry" />
        </mxCell>
        <mxCell id="xMIkVvJcNc6API9_gUjA-9" value="speach to text&lt;div&gt;&amp;nbsp;model&lt;/div&gt;" style="shape=umlLifeline;perimeter=lifelinePerimeter;whiteSpace=wrap;html=1;container=1;collapsible=0;recursiveResize=0;outlineConnect=0;rounded=1;shadow=0;comic=0;labelBackgroundColor=none;strokeWidth=1;fontFamily=Verdana;fontSize=12;align=center;" vertex="1" parent="1">
          <mxGeometry x="410" y="-1570" width="100" height="660" as="geometry" />
        </mxCell>
        <mxCell id="xMIkVvJcNc6API9_gUjA-10" value="" style="html=1;points=[];perimeter=orthogonalPerimeter;rounded=0;shadow=0;comic=0;labelBackgroundColor=none;strokeWidth=1;fontFamily=Verdana;fontSize=12;align=center;" vertex="1" parent="xMIkVvJcNc6API9_gUjA-9">
          <mxGeometry x="45" y="60" width="10" height="20" as="geometry" />
        </mxCell>
        <mxCell id="xMIkVvJcNc6API9_gUjA-11" value="text to speach&lt;div&gt;model&lt;/div&gt;" style="shape=umlLifeline;perimeter=lifelinePerimeter;whiteSpace=wrap;html=1;container=1;collapsible=0;recursiveResize=0;outlineConnect=0;rounded=1;shadow=0;comic=0;labelBackgroundColor=none;strokeWidth=1;fontFamily=Verdana;fontSize=12;align=center;" vertex="1" parent="1">
          <mxGeometry x="270" y="-1570" width="100" height="670" as="geometry" />
        </mxCell>
        <mxCell id="xMIkVvJcNc6API9_gUjA-12" value="" style="html=1;points=[];perimeter=orthogonalPerimeter;rounded=0;shadow=0;comic=0;labelBackgroundColor=none;strokeWidth=1;fontFamily=Verdana;fontSize=12;align=center;" vertex="1" parent="xMIkVvJcNc6API9_gUjA-11">
          <mxGeometry x="45" y="550" width="10" height="30" as="geometry" />
        </mxCell>
        <mxCell id="xMIkVvJcNc6API9_gUjA-13" value="LLM" style="shape=umlLifeline;perimeter=lifelinePerimeter;whiteSpace=wrap;html=1;container=1;collapsible=0;recursiveResize=0;outlineConnect=0;rounded=1;shadow=0;comic=0;labelBackgroundColor=none;strokeWidth=1;fontFamily=Verdana;fontSize=12;align=center;" vertex="1" parent="1">
          <mxGeometry x="1000" y="-1570" width="100" height="670" as="geometry" />
        </mxCell>
        <mxCell id="xMIkVvJcNc6API9_gUjA-14" value="server" style="shape=umlLifeline;perimeter=lifelinePerimeter;whiteSpace=wrap;html=1;container=1;collapsible=0;recursiveResize=0;outlineConnect=0;rounded=1;shadow=0;comic=0;labelBackgroundColor=none;strokeWidth=1;fontFamily=Verdana;fontSize=12;align=center;" vertex="1" parent="1">
          <mxGeometry x="560" y="-1570" width="100" height="670" as="geometry" />
        </mxCell>
        <mxCell id="xMIkVvJcNc6API9_gUjA-15" value="" style="html=1;points=[];perimeter=orthogonalPerimeter;rounded=0;shadow=0;comic=0;labelBackgroundColor=none;strokeWidth=1;fontFamily=Verdana;fontSize=12;align=center;" vertex="1" parent="xMIkVvJcNc6API9_gUjA-14">
          <mxGeometry x="45" y="100" width="10" height="490" as="geometry" />
        </mxCell>
        <mxCell id="xMIkVvJcNc6API9_gUjA-16" value="embedding model" style="shape=umlLifeline;perimeter=lifelinePerimeter;whiteSpace=wrap;html=1;container=1;collapsible=0;recursiveResize=0;outlineConnect=0;rounded=1;shadow=0;comic=0;labelBackgroundColor=none;strokeWidth=1;fontFamily=Verdana;fontSize=12;align=center;" vertex="1" parent="1">
          <mxGeometry x="720" y="-1570" width="100" height="670" as="geometry" />
        </mxCell>
        <mxCell id="xMIkVvJcNc6API9_gUjA-17" value="update cache" style="html=1;verticalAlign=bottom;endArrow=block;labelBackgroundColor=none;fontFamily=Verdana;fontSize=12;edgeStyle=elbowEdgeStyle;elbow=vertical;" edge="1" parent="xMIkVvJcNc6API9_gUjA-16" target="xMIkVvJcNc6API9_gUjA-37">
          <mxGeometry relative="1" as="geometry">
            <mxPoint x="-104.5" y="560.17" as="sourcePoint" />
            <mxPoint x="325.0000000000002" y="560.0033333333334" as="targetPoint" />
          </mxGeometry>
        </mxCell>
        <mxCell id="xMIkVvJcNc6API9_gUjA-18" value="update db" style="html=1;verticalAlign=bottom;endArrow=block;labelBackgroundColor=none;fontFamily=Verdana;fontSize=12;edgeStyle=elbowEdgeStyle;elbow=vertical;entryX=0.468;entryY=0.837;entryDx=0;entryDy=0;entryPerimeter=0;" edge="1" parent="xMIkVvJcNc6API9_gUjA-16">
          <mxGeometry relative="1" as="geometry">
            <mxPoint x="-105" y="590" as="sourcePoint" />
            <mxPoint x="466.5" y="590.83" as="targetPoint" />
          </mxGeometry>
        </mxCell>
        <mxCell id="xMIkVvJcNc6API9_gUjA-19" value="vector DB" style="shape=umlLifeline;perimeter=lifelinePerimeter;whiteSpace=wrap;html=1;container=1;collapsible=0;recursiveResize=0;outlineConnect=0;rounded=1;shadow=0;comic=0;labelBackgroundColor=none;strokeWidth=1;fontFamily=Verdana;fontSize=12;align=center;" vertex="1" parent="1">
          <mxGeometry x="860" y="-1570" width="120" height="670" as="geometry" />
        </mxCell>
        <mxCell id="xMIkVvJcNc6API9_gUjA-20" value="" style="html=1;points=[];perimeter=orthogonalPerimeter;rounded=0;shadow=0;comic=0;labelBackgroundColor=none;strokeWidth=1;fontFamily=Verdana;fontSize=12;align=center;" vertex="1" parent="xMIkVvJcNc6API9_gUjA-19">
          <mxGeometry x="-95" y="310.16999999999996" width="10" height="40" as="geometry" />
        </mxCell>
        <mxCell id="xMIkVvJcNc6API9_gUjA-21" value="return" style="html=1;verticalAlign=bottom;endArrow=open;dashed=1;endSize=8;labelBackgroundColor=none;fontFamily=Verdana;fontSize=12;" edge="1" parent="xMIkVvJcNc6API9_gUjA-19">
          <mxGeometry relative="1" as="geometry">
            <mxPoint x="-240" y="392" as="targetPoint" />
            <mxPoint x="50" y="392" as="sourcePoint" />
          </mxGeometry>
        </mxCell>
        <mxCell id="xMIkVvJcNc6API9_gUjA-22" value="" style="html=1;points=[];perimeter=orthogonalPerimeter;rounded=0;shadow=0;comic=0;labelBackgroundColor=none;strokeWidth=1;fontFamily=Verdana;fontSize=12;align=center;" vertex="1" parent="xMIkVvJcNc6API9_gUjA-19">
          <mxGeometry x="55" y="330.16999999999996" width="10" height="60" as="geometry" />
        </mxCell>
        <mxCell id="xMIkVvJcNc6API9_gUjA-23" value="embed the question" style="html=1;verticalAlign=bottom;endArrow=block;entryX=0;entryY=0;labelBackgroundColor=none;fontFamily=Verdana;fontSize=12;edgeStyle=elbowEdgeStyle;elbow=vertical;" edge="1" parent="xMIkVvJcNc6API9_gUjA-19" target="xMIkVvJcNc6API9_gUjA-20">
          <mxGeometry relative="1" as="geometry">
            <mxPoint x="-245" y="310.00333333333333" as="sourcePoint" />
            <Array as="points">
              <mxPoint x="-235" y="310" />
            </Array>
          </mxGeometry>
        </mxCell>
        <mxCell id="xMIkVvJcNc6API9_gUjA-24" value="quary" style="html=1;verticalAlign=bottom;endArrow=block;labelBackgroundColor=none;fontFamily=Verdana;fontSize=12;edgeStyle=elbowEdgeStyle;elbow=vertical;exitX=1;exitY=0.519;exitDx=0;exitDy=0;exitPerimeter=0;" edge="1" parent="xMIkVvJcNc6API9_gUjA-19" source="xMIkVvJcNc6API9_gUjA-20">
          <mxGeometry relative="1" as="geometry">
            <mxPoint x="-60" y="289.66999999999996" as="sourcePoint" />
            <mxPoint x="49.50000000000023" y="330.8366666666667" as="targetPoint" />
          </mxGeometry>
        </mxCell>
        <mxCell id="xMIkVvJcNc6API9_gUjA-25" value="return" style="html=1;verticalAlign=bottom;endArrow=open;dashed=1;endSize=8;labelBackgroundColor=none;fontFamily=Verdana;fontSize=12;edgeStyle=elbowEdgeStyle;elbow=vertical;" edge="1" parent="xMIkVvJcNc6API9_gUjA-19">
          <mxGeometry relative="1" as="geometry">
            <mxPoint x="-240" y="530" as="targetPoint" />
            <Array as="points">
              <mxPoint x="73.5" y="530" />
            </Array>
            <mxPoint x="195" y="530" as="sourcePoint" />
          </mxGeometry>
        </mxCell>
        <mxCell id="xMIkVvJcNc6API9_gUjA-26" value="ask the LLM" style="html=1;verticalAlign=bottom;endArrow=block;labelBackgroundColor=none;fontFamily=Verdana;fontSize=12;edgeStyle=elbowEdgeStyle;elbow=vertical;" edge="1" parent="xMIkVvJcNc6API9_gUjA-19">
          <mxGeometry relative="1" as="geometry">
            <mxPoint x="-240" y="500" as="sourcePoint" />
            <mxPoint x="189.50000000000023" y="499.8333333333335" as="targetPoint" />
          </mxGeometry>
        </mxCell>
        <mxCell id="xMIkVvJcNc6API9_gUjA-27" value="" style="html=1;points=[];perimeter=orthogonalPerimeter;rounded=0;shadow=0;comic=0;labelBackgroundColor=none;strokeWidth=1;fontFamily=Verdana;fontSize=12;align=center;" vertex="1" parent="xMIkVvJcNc6API9_gUjA-19">
          <mxGeometry x="185" y="490" width="10" height="40" as="geometry" />
        </mxCell>
        <mxCell id="xMIkVvJcNc6API9_gUjA-28" value="relational DB" style="shape=umlLifeline;perimeter=lifelinePerimeter;whiteSpace=wrap;html=1;container=1;collapsible=0;recursiveResize=0;outlineConnect=0;rounded=1;shadow=0;comic=0;labelBackgroundColor=none;strokeWidth=1;fontFamily=Verdana;fontSize=12;align=center;" vertex="1" parent="1">
          <mxGeometry x="1140" y="-1570" width="100" height="670" as="geometry" />
        </mxCell>
        <mxCell id="xMIkVvJcNc6API9_gUjA-29" value="" style="html=1;verticalAlign=bottom;endArrow=open;dashed=1;endSize=8;labelBackgroundColor=none;fontFamily=Verdana;fontSize=12;" edge="1" parent="xMIkVvJcNc6API9_gUjA-28">
          <mxGeometry relative="1" as="geometry">
            <mxPoint x="-527" y="150" as="targetPoint" />
            <mxPoint x="185" y="150" as="sourcePoint" />
          </mxGeometry>
        </mxCell>
        <mxCell id="xMIkVvJcNc6API9_gUjA-30" value="return {session : logs}" style="edgeLabel;html=1;align=center;verticalAlign=middle;resizable=0;points=[];fontSize=12;" vertex="1" connectable="0" parent="xMIkVvJcNc6API9_gUjA-29">
          <mxGeometry x="0.0033" y="-3" relative="1" as="geometry">
            <mxPoint x="-6" y="-7" as="offset" />
          </mxGeometry>
        </mxCell>
        <mxCell id="xMIkVvJcNc6API9_gUjA-31" value="" style="html=1;points=[];perimeter=orthogonalPerimeter;rounded=0;shadow=0;comic=0;labelBackgroundColor=none;strokeWidth=1;fontFamily=Verdana;fontSize=12;align=center;" vertex="1" parent="xMIkVvJcNc6API9_gUjA-28">
          <mxGeometry x="45" y="590" width="10" height="40" as="geometry" />
        </mxCell>
        <mxCell id="xMIkVvJcNc6API9_gUjA-32" value="User Interface" style="shape=umlLifeline;perimeter=lifelinePerimeter;whiteSpace=wrap;html=1;container=1;collapsible=0;recursiveResize=0;outlineConnect=0;rounded=1;shadow=0;comic=0;labelBackgroundColor=none;strokeWidth=1;fontFamily=Verdana;fontSize=12;align=center;" vertex="1" parent="1">
          <mxGeometry x="90" y="-1570" width="100" height="670" as="geometry" />
        </mxCell>
        <mxCell id="xMIkVvJcNc6API9_gUjA-33" value="ask question" style="html=1;verticalAlign=bottom;endArrow=block;labelBackgroundColor=none;fontFamily=Verdana;fontSize=12;edgeStyle=elbowEdgeStyle;elbow=vertical;" edge="1" parent="xMIkVvJcNc6API9_gUjA-32" target="xMIkVvJcNc6API9_gUjA-14">
          <mxGeometry relative="1" as="geometry">
            <mxPoint x="55" y="100" as="sourcePoint" />
            <mxPoint x="185" y="100.00000000000182" as="targetPoint" />
          </mxGeometry>
        </mxCell>
        <mxCell id="xMIkVvJcNc6API9_gUjA-34" value="" style="html=1;points=[];perimeter=orthogonalPerimeter;rounded=0;shadow=0;comic=0;labelBackgroundColor=none;strokeWidth=1;fontFamily=Verdana;fontSize=12;align=center;" vertex="1" parent="xMIkVvJcNc6API9_gUjA-32">
          <mxGeometry x="45" y="50" width="10" height="50" as="geometry" />
        </mxCell>
        <mxCell id="xMIkVvJcNc6API9_gUjA-35" value="" style="html=1;points=[];perimeter=orthogonalPerimeter;rounded=0;shadow=0;comic=0;labelBackgroundColor=none;strokeWidth=1;fontFamily=Verdana;fontSize=12;align=center;" vertex="1" parent="xMIkVvJcNc6API9_gUjA-32">
          <mxGeometry x="45" y="580" width="10" height="40" as="geometry" />
        </mxCell>
        <mxCell id="xMIkVvJcNc6API9_gUjA-36" value="return (text)&lt;span style=&quot;color: rgba(0, 0, 0, 0); font-family: monospace; font-size: 0px; text-align: start;&quot;&gt;%3CmxGraphModel%3E%3Croot%3E%3CmxCell%20id%3D%220%22%2F%3E%3CmxCell%20id%3D%221%22%20parent%3D%220%22%2F%3E%3CmxCell%20id%3D%222%22%20value%3D%22%22%20style%3D%22html%3D1%3Bpoints%3D%5B%5D%3Bperimeter%3DorthogonalPerimeter%3Brounded%3D0%3Bshadow%3D0%3Bcomic%3D0%3BlabelBackgroundColor%3Dnone%3BstrokeWidth%3D1%3BfontFamily%3DVerdana%3BfontSize%3D12%3Balign%3Dcenter%3B%22%20vertex%3D%221%22%20parent%3D%221%22%3E%3CmxGeometry%20x%3D%22365%22%20y%3D%22-1630%22%20width%3D%2210%22%20height%3D%2250%22%20as%3D%22geometry%22%2F%3E%3C%2FmxCell%3E%3C%2Froot%3E%3C%2FmxGraphModel%3E&lt;/span&gt;" style="html=1;verticalAlign=bottom;endArrow=open;dashed=1;endSize=8;labelBackgroundColor=none;fontFamily=Verdana;fontSize=12;" edge="1" parent="1" target="xMIkVvJcNc6API9_gUjA-11">
          <mxGeometry relative="1" as="geometry">
            <mxPoint x="270" y="-1020" as="targetPoint" />
            <mxPoint x="610" y="-1020" as="sourcePoint" />
          </mxGeometry>
        </mxCell>
        <mxCell id="xMIkVvJcNc6API9_gUjA-37" value="cache" style="shape=umlLifeline;perimeter=lifelinePerimeter;whiteSpace=wrap;html=1;container=1;collapsible=0;recursiveResize=0;outlineConnect=0;rounded=1;shadow=0;comic=0;labelBackgroundColor=none;strokeWidth=1;fontFamily=Verdana;fontSize=12;align=center;" vertex="1" parent="1">
          <mxGeometry x="1280" y="-1570" width="100" height="670" as="geometry" />
        </mxCell>
        <mxCell id="xMIkVvJcNc6API9_gUjA-38" value="" style="html=1;points=[];perimeter=orthogonalPerimeter;rounded=0;shadow=0;comic=0;labelBackgroundColor=none;strokeWidth=1;fontFamily=Verdana;fontSize=12;align=center;" vertex="1" parent="xMIkVvJcNc6API9_gUjA-37">
          <mxGeometry x="45" y="110" width="10" height="40" as="geometry" />
        </mxCell>
        <mxCell id="xMIkVvJcNc6API9_gUjA-39" value="" style="html=1;points=[];perimeter=orthogonalPerimeter;rounded=0;shadow=0;comic=0;labelBackgroundColor=none;strokeWidth=1;fontFamily=Verdana;fontSize=12;align=center;" vertex="1" parent="xMIkVvJcNc6API9_gUjA-37">
          <mxGeometry x="45" y="200" width="10" height="40" as="geometry" />
        </mxCell>
        <mxCell id="xMIkVvJcNc6API9_gUjA-40" value="" style="html=1;points=[];perimeter=orthogonalPerimeter;rounded=0;shadow=0;comic=0;labelBackgroundColor=none;strokeWidth=1;fontFamily=Verdana;fontSize=12;align=center;" vertex="1" parent="xMIkVvJcNc6API9_gUjA-37">
          <mxGeometry x="45" y="560" width="10" height="40" as="geometry" />
        </mxCell>
        <mxCell id="xMIkVvJcNc6API9_gUjA-41" value="get the user session" style="html=1;verticalAlign=bottom;endArrow=block;labelBackgroundColor=none;fontFamily=Verdana;fontSize=12;edgeStyle=elbowEdgeStyle;elbow=vertical;exitX=1.278;exitY=0.059;exitDx=0;exitDy=0;exitPerimeter=0;" edge="1" parent="1">
          <mxGeometry relative="1" as="geometry">
            <mxPoint x="617.7800000000002" y="-1460" as="sourcePoint" />
            <mxPoint x="1329.5" y="-1459.7033333333334" as="targetPoint" />
            <Array as="points" />
          </mxGeometry>
        </mxCell>
        <mxCell id="xMIkVvJcNc6API9_gUjA-42" value="create a new session" style="html=1;verticalAlign=bottom;endArrow=block;labelBackgroundColor=none;fontFamily=Verdana;fontSize=12;edgeStyle=elbowEdgeStyle;elbow=vertical;" edge="1" parent="1" source="xMIkVvJcNc6API9_gUjA-15">
          <mxGeometry relative="1" as="geometry">
            <mxPoint x="619" y="-1369.83" as="sourcePoint" />
            <mxPoint x="1331" y="-1369.83" as="targetPoint" />
          </mxGeometry>
        </mxCell>
        <mxCell id="xMIkVvJcNc6API9_gUjA-43" value="update the promte" style="html=1;verticalAlign=bottom;endArrow=block;labelBackgroundColor=none;fontFamily=Verdana;fontSize=12;elbow=vertical;edgeStyle=orthogonalEdgeStyle;curved=1;" edge="1" parent="1">
          <mxGeometry relative="1" as="geometry">
            <mxPoint x="615" y="-1146" as="sourcePoint" />
            <mxPoint x="615" y="-1110" as="targetPoint" />
            <Array as="points">
              <mxPoint x="681" y="-1146" />
              <mxPoint x="681" y="-1110" />
            </Array>
          </mxGeometry>
        </mxCell>
        <mxCell id="xMIkVvJcNc6API9_gUjA-44" value="return (voice)&lt;span style=&quot;color: rgba(0, 0, 0, 0); font-family: monospace; font-size: 0px; text-align: start;&quot;&gt;%3CmxGraphModel%3E%3Croot%3E%3CmxCell%20id%3D%220%22%2F%3E%3CmxCell%20id%3D%221%22%20parent%3D%220%22%2F%3E%3CmxCell%20id%3D%222%22%20value%3D%22%22%20style%3D%22html%3D1%3Bpoints%3D%5B%5D%3Bperimeter%3DorthogonalPerimeter%3Brounded%3D0%3Bshadow%3D0%3Bcomic%3D0%3BlabelBackgroundColor%3Dnone%3BstrokeWidth%3D1%3BfontFamily%3DVerdana%3BfontSize%3D12%3Balign%3Dcenter%3B%22%20vertex%3D%221%22%20parent%3D%221%22%3E%3CmxGeometry%20x%3D%22365%22%20y%3D%22-1630%22%20width%3D%2210%22%20height%3D%2250%22%20as%3D%22geometry%22%2F%3E%3C%2FmxCell%3E%3C%2Froot%3E%3C%2FmxGraphModel%3E&lt;/span&gt;" style="html=1;verticalAlign=bottom;endArrow=open;dashed=1;endSize=8;labelBackgroundColor=none;fontFamily=Verdana;fontSize=12;" edge="1" parent="1" target="xMIkVvJcNc6API9_gUjA-32">
          <mxGeometry relative="1" as="geometry">
            <mxPoint x="530.0000000000005" y="-990" as="targetPoint" />
            <mxPoint x="320.5" y="-990" as="sourcePoint" />
          </mxGeometry>
        </mxCell>
        <mxCell id="xMIkVvJcNc6API9_gUjA-45" value="vocal" style="html=1;verticalAlign=bottom;endArrow=block;labelBackgroundColor=none;fontFamily=Verdana;fontSize=12;edgeStyle=elbowEdgeStyle;elbow=vertical;exitX=1.133;exitY=0.218;exitDx=0;exitDy=0;exitPerimeter=0;" edge="1" parent="1" source="xMIkVvJcNc6API9_gUjA-34" target="xMIkVvJcNc6API9_gUjA-9">
          <mxGeometry x="-0.146" y="1" relative="1" as="geometry">
            <mxPoint x="320.5" y="-1510" as="sourcePoint" />
            <mxPoint x="190" y="-1510" as="targetPoint" />
            <mxPoint as="offset" />
          </mxGeometry>
        </mxCell>
        <mxCell id="xMIkVvJcNc6API9_gUjA-46" value="return (text)" style="html=1;verticalAlign=bottom;endArrow=open;dashed=1;endSize=8;labelBackgroundColor=none;fontFamily=Verdana;fontSize=12;exitX=0.067;exitY=0.563;exitDx=0;exitDy=0;exitPerimeter=0;" edge="1" parent="1">
          <mxGeometry relative="1" as="geometry">
            <mxPoint x="139.5" y="-1490.0000000000002" as="targetPoint" />
            <mxPoint x="455.6700000000001" y="-1490.0000000000002" as="sourcePoint" />
          </mxGeometry>
        </mxCell>
        <mxCell id="xMIkVvJcNc6API9_gUjA-47" value="voice chat&amp;nbsp;" style="shape=umlFrame;whiteSpace=wrap;html=1;pointerEvents=0;width=100;height=30;" vertex="1" parent="1">
          <mxGeometry x="60" y="-1640" width="1380" height="760" as="geometry" />
        </mxCell>
      </root>
    </mxGraphModel>
  </diagram>
</mxfile>
